<mxfile host="app.diagrams.net" modified="2023-12-11T16:02:08.405Z" agent="Mozilla/5.0 (Windows NT 10.0; Win64; x64) AppleWebKit/537.36 (KHTML, like Gecko) Chrome/119.0.0.0 Safari/537.36" etag="U_rXvARV-fIyQJwZe7AY" version="22.1.7" type="github">
  <diagram name="Page-1" id="t8wCQ7tXZv-2bxK0fcjP">
    <mxGraphModel dx="1562" dy="830" grid="1" gridSize="10" guides="1" tooltips="1" connect="1" arrows="1" fold="1" page="1" pageScale="1" pageWidth="827" pageHeight="1169" math="0" shadow="0">
      <root>
        <mxCell id="0" />
        <mxCell id="1" parent="0" />
        <mxCell id="9Z9TL7PvHt9BOacIorQI-5" style="edgeStyle=orthogonalEdgeStyle;rounded=0;orthogonalLoop=1;jettySize=auto;html=1;exitX=1;exitY=0.3333333333333333;exitDx=0;exitDy=0;exitPerimeter=0;" edge="1" parent="1" source="9Z9TL7PvHt9BOacIorQI-1" target="9Z9TL7PvHt9BOacIorQI-6">
          <mxGeometry relative="1" as="geometry">
            <mxPoint x="170" y="290" as="targetPoint" />
          </mxGeometry>
        </mxCell>
        <mxCell id="9Z9TL7PvHt9BOacIorQI-7" value="Push to develop" style="edgeLabel;html=1;align=center;verticalAlign=middle;resizable=0;points=[];" vertex="1" connectable="0" parent="9Z9TL7PvHt9BOacIorQI-5">
          <mxGeometry x="0.0667" relative="1" as="geometry">
            <mxPoint as="offset" />
          </mxGeometry>
        </mxCell>
        <mxCell id="9Z9TL7PvHt9BOacIorQI-1" value="Developer" style="shape=umlActor;verticalLabelPosition=bottom;verticalAlign=top;html=1;outlineConnect=0;" vertex="1" parent="1">
          <mxGeometry x="70" y="270" width="30" height="60" as="geometry" />
        </mxCell>
        <mxCell id="9Z9TL7PvHt9BOacIorQI-12" style="edgeStyle=orthogonalEdgeStyle;rounded=0;orthogonalLoop=1;jettySize=auto;html=1;" edge="1" parent="1" source="9Z9TL7PvHt9BOacIorQI-6" target="9Z9TL7PvHt9BOacIorQI-9">
          <mxGeometry relative="1" as="geometry" />
        </mxCell>
        <mxCell id="9Z9TL7PvHt9BOacIorQI-13" value="Triggers GitHub action" style="edgeLabel;html=1;align=center;verticalAlign=middle;resizable=0;points=[];" vertex="1" connectable="0" parent="9Z9TL7PvHt9BOacIorQI-12">
          <mxGeometry x="0.09" y="-4" relative="1" as="geometry">
            <mxPoint as="offset" />
          </mxGeometry>
        </mxCell>
        <mxCell id="9Z9TL7PvHt9BOacIorQI-6" value="GitHub repo" style="shape=cylinder3;whiteSpace=wrap;html=1;boundedLbl=1;backgroundOutline=1;size=15;" vertex="1" parent="1">
          <mxGeometry x="220" y="250" width="60" height="80" as="geometry" />
        </mxCell>
        <mxCell id="9Z9TL7PvHt9BOacIorQI-8" value="CI/CD workflow" style="swimlane;fontStyle=0;childLayout=stackLayout;horizontal=1;startSize=30;horizontalStack=0;resizeParent=1;resizeParentMax=0;resizeLast=0;collapsible=1;marginBottom=0;whiteSpace=wrap;html=1;" vertex="1" parent="1">
          <mxGeometry x="414" y="120" width="230" height="210" as="geometry" />
        </mxCell>
        <mxCell id="9Z9TL7PvHt9BOacIorQI-14" style="edgeStyle=orthogonalEdgeStyle;rounded=0;orthogonalLoop=1;jettySize=auto;html=1;exitX=1;exitY=0.5;exitDx=0;exitDy=0;" edge="1" parent="9Z9TL7PvHt9BOacIorQI-8" source="9Z9TL7PvHt9BOacIorQI-9" target="9Z9TL7PvHt9BOacIorQI-9">
          <mxGeometry relative="1" as="geometry" />
        </mxCell>
        <mxCell id="9Z9TL7PvHt9BOacIorQI-15" style="edgeStyle=orthogonalEdgeStyle;rounded=0;orthogonalLoop=1;jettySize=auto;html=1;" edge="1" parent="9Z9TL7PvHt9BOacIorQI-8" source="9Z9TL7PvHt9BOacIorQI-9">
          <mxGeometry relative="1" as="geometry">
            <mxPoint x="126" y="300" as="targetPoint" />
          </mxGeometry>
        </mxCell>
        <mxCell id="9Z9TL7PvHt9BOacIorQI-16" value="Triggers ArgoCD synchronization" style="edgeLabel;html=1;align=center;verticalAlign=middle;resizable=0;points=[];" vertex="1" connectable="0" parent="9Z9TL7PvHt9BOacIorQI-15">
          <mxGeometry x="-0.2507" y="2" relative="1" as="geometry">
            <mxPoint y="19" as="offset" />
          </mxGeometry>
        </mxCell>
        <mxCell id="9Z9TL7PvHt9BOacIorQI-9" value="CI job:&lt;br&gt;&lt;ul&gt;&lt;li&gt;Checkout develop branch&lt;/li&gt;&lt;li&gt;Perform &quot;make test&quot;&lt;/li&gt;&lt;li&gt;Build application&lt;/li&gt;&lt;li&gt;Build and Push image to ghcr.io&lt;/li&gt;&lt;/ul&gt;&lt;br&gt;CD job:&lt;br&gt;&lt;ul&gt;&lt;li&gt;Update version in helm&lt;/li&gt;&lt;li&gt;Push new version to GitHub repo&lt;/li&gt;&lt;/ul&gt;" style="text;strokeColor=none;fillColor=none;align=left;verticalAlign=middle;spacingLeft=4;spacingRight=4;overflow=hidden;points=[[0,0.5],[1,0.5]];portConstraint=eastwest;rotatable=0;whiteSpace=wrap;html=1;" vertex="1" parent="9Z9TL7PvHt9BOacIorQI-8">
          <mxGeometry y="30" width="230" height="180" as="geometry" />
        </mxCell>
        <mxCell id="9Z9TL7PvHt9BOacIorQI-18" value="ArgoCD" style="swimlane;whiteSpace=wrap;html=1;" vertex="1" parent="1">
          <mxGeometry x="414" y="420" width="276" height="90" as="geometry" />
        </mxCell>
        <mxCell id="9Z9TL7PvHt9BOacIorQI-22" value="Updates TelegramBot" style="text;html=1;align=center;verticalAlign=middle;resizable=0;points=[];autosize=1;strokeColor=none;fillColor=none;" vertex="1" parent="9Z9TL7PvHt9BOacIorQI-18">
          <mxGeometry y="60" width="140" height="30" as="geometry" />
        </mxCell>
        <mxCell id="9Z9TL7PvHt9BOacIorQI-25" style="edgeStyle=orthogonalEdgeStyle;rounded=0;orthogonalLoop=1;jettySize=auto;html=1;entryX=1;entryY=0.5;entryDx=0;entryDy=0;" edge="1" parent="1" source="9Z9TL7PvHt9BOacIorQI-19" target="9Z9TL7PvHt9BOacIorQI-23">
          <mxGeometry relative="1" as="geometry" />
        </mxCell>
        <mxCell id="9Z9TL7PvHt9BOacIorQI-27" value="Updates TelegramBot" style="edgeLabel;html=1;align=center;verticalAlign=middle;resizable=0;points=[];" vertex="1" connectable="0" parent="9Z9TL7PvHt9BOacIorQI-25">
          <mxGeometry x="-0.0179" y="4" relative="1" as="geometry">
            <mxPoint as="offset" />
          </mxGeometry>
        </mxCell>
        <mxCell id="9Z9TL7PvHt9BOacIorQI-19" value="Performs autosynchronization from helm charts" style="text;html=1;align=center;verticalAlign=middle;resizable=0;points=[];autosize=1;strokeColor=none;fillColor=none;" vertex="1" parent="1">
          <mxGeometry x="417" y="450" width="270" height="30" as="geometry" />
        </mxCell>
        <mxCell id="9Z9TL7PvHt9BOacIorQI-23" value="TelegramBot" style="swimlane;whiteSpace=wrap;html=1;" vertex="1" parent="1">
          <mxGeometry x="40" y="427.5" width="210" height="75" as="geometry" />
        </mxCell>
        <mxCell id="9Z9TL7PvHt9BOacIorQI-24" value="Uses TELE_TOKEN from secrets&lt;br&gt;Executed and hosted in k3d cluster" style="text;html=1;align=left;verticalAlign=middle;resizable=0;points=[];autosize=1;strokeColor=none;fillColor=none;" vertex="1" parent="9Z9TL7PvHt9BOacIorQI-23">
          <mxGeometry y="22.5" width="210" height="40" as="geometry" />
        </mxCell>
      </root>
    </mxGraphModel>
  </diagram>
</mxfile>

<mxfile host="app.diagrams.net" modified="2023-12-11T18:01:29.728Z" agent="Mozilla/5.0 (Windows NT 10.0; Win64; x64) AppleWebKit/537.36 (KHTML, like Gecko) Chrome/119.0.0.0 Safari/537.36" etag="-_Yfw09ueQ7pYMdeaheJ" version="22.1.7" type="github">
  <diagram name="Page-1" id="t8wCQ7tXZv-2bxK0fcjP">
    <mxGraphModel dx="1562" dy="830" grid="1" gridSize="10" guides="1" tooltips="1" connect="1" arrows="1" fold="1" page="1" pageScale="1" pageWidth="827" pageHeight="1169" math="0" shadow="0">
      <root>
        <mxCell id="0" />
        <mxCell id="1" parent="0" />
        <mxCell id="9Z9TL7PvHt9BOacIorQI-5" style="edgeStyle=orthogonalEdgeStyle;rounded=0;orthogonalLoop=1;jettySize=auto;html=1;exitX=1;exitY=0.3333333333333333;exitDx=0;exitDy=0;exitPerimeter=0;" edge="1" parent="1" source="9Z9TL7PvHt9BOacIorQI-1" target="9Z9TL7PvHt9BOacIorQI-6">
          <mxGeometry relative="1" as="geometry">
            <mxPoint x="170" y="290" as="targetPoint" />
          </mxGeometry>
        </mxCell>
        <mxCell id="9Z9TL7PvHt9BOacIorQI-7" value="Push to develop" style="edgeLabel;html=1;align=center;verticalAlign=middle;resizable=0;points=[];" vertex="1" connectable="0" parent="9Z9TL7PvHt9BOacIorQI-5">
          <mxGeometry x="0.0667" relative="1" as="geometry">
            <mxPoint as="offset" />
          </mxGeometry>
        </mxCell>
        <mxCell id="9Z9TL7PvHt9BOacIorQI-1" value="Developer" style="shape=umlActor;verticalLabelPosition=bottom;verticalAlign=top;html=1;outlineConnect=0;" vertex="1" parent="1">
          <mxGeometry x="70" y="270" width="30" height="60" as="geometry" />
        </mxCell>
        <mxCell id="9Z9TL7PvHt9BOacIorQI-12" style="edgeStyle=orthogonalEdgeStyle;rounded=0;orthogonalLoop=1;jettySize=auto;html=1;" edge="1" parent="1" source="9Z9TL7PvHt9BOacIorQI-6" target="9Z9TL7PvHt9BOacIorQI-9">
          <mxGeometry relative="1" as="geometry" />
        </mxCell>
        <mxCell id="9Z9TL7PvHt9BOacIorQI-13" value="Triggers GitHub action" style="edgeLabel;html=1;align=center;verticalAlign=middle;resizable=0;points=[];" vertex="1" connectable="0" parent="9Z9TL7PvHt9BOacIorQI-12">
          <mxGeometry x="0.09" y="-4" relative="1" as="geometry">
            <mxPoint as="offset" />
          </mxGeometry>
        </mxCell>
        <mxCell id="9Z9TL7PvHt9BOacIorQI-6" value="GitHub repo" style="shape=cylinder3;whiteSpace=wrap;html=1;boundedLbl=1;backgroundOutline=1;size=15;" vertex="1" parent="1">
          <mxGeometry x="220" y="250" width="60" height="80" as="geometry" />
        </mxCell>
        <mxCell id="9Z9TL7PvHt9BOacIorQI-8" value="CI/CD workflow" style="swimlane;fontStyle=0;childLayout=stackLayout;horizontal=1;startSize=30;horizontalStack=0;resizeParent=1;resizeParentMax=0;resizeLast=0;collapsible=1;marginBottom=0;whiteSpace=wrap;html=1;" vertex="1" parent="1">
          <mxGeometry x="414" y="120" width="230" height="210" as="geometry" />
        </mxCell>
        <mxCell id="9Z9TL7PvHt9BOacIorQI-14" style="edgeStyle=orthogonalEdgeStyle;rounded=0;orthogonalLoop=1;jettySize=auto;html=1;exitX=1;exitY=0.5;exitDx=0;exitDy=0;" edge="1" parent="9Z9TL7PvHt9BOacIorQI-8" source="9Z9TL7PvHt9BOacIorQI-9" target="9Z9TL7PvHt9BOacIorQI-9">
          <mxGeometry relative="1" as="geometry" />
        </mxCell>
        <mxCell id="9Z9TL7PvHt9BOacIorQI-15" style="edgeStyle=orthogonalEdgeStyle;rounded=0;orthogonalLoop=1;jettySize=auto;html=1;" edge="1" parent="9Z9TL7PvHt9BOacIorQI-8" source="9Z9TL7PvHt9BOacIorQI-9">
          <mxGeometry relative="1" as="geometry">
            <mxPoint x="126" y="300" as="targetPoint" />
          </mxGeometry>
        </mxCell>
        <mxCell id="9Z9TL7PvHt9BOacIorQI-16" value="Triggers ArgoCD synchronization" style="edgeLabel;html=1;align=center;verticalAlign=middle;resizable=0;points=[];" vertex="1" connectable="0" parent="9Z9TL7PvHt9BOacIorQI-15">
          <mxGeometry x="-0.2507" y="2" relative="1" as="geometry">
            <mxPoint y="19" as="offset" />
          </mxGeometry>
        </mxCell>
        <mxCell id="9Z9TL7PvHt9BOacIorQI-9" value="CI job:&lt;br&gt;&lt;ul&gt;&lt;li&gt;Checkout develop branch&lt;/li&gt;&lt;li&gt;Perform &quot;make test&quot;&lt;/li&gt;&lt;li&gt;Build application&lt;/li&gt;&lt;li&gt;Build and Push image to ghcr.io&lt;/li&gt;&lt;/ul&gt;&lt;br&gt;CD job:&lt;br&gt;&lt;ul&gt;&lt;li&gt;Update version in helm&lt;/li&gt;&lt;li&gt;Push new version to GitHub repo&lt;/li&gt;&lt;li&gt;Creates new release&lt;/li&gt;&lt;/ul&gt;" style="text;strokeColor=none;fillColor=none;align=left;verticalAlign=middle;spacingLeft=4;spacingRight=4;overflow=hidden;points=[[0,0.5],[1,0.5]];portConstraint=eastwest;rotatable=0;whiteSpace=wrap;html=1;" vertex="1" parent="9Z9TL7PvHt9BOacIorQI-8">
          <mxGeometry y="30" width="230" height="180" as="geometry" />
        </mxCell>
        <mxCell id="9Z9TL7PvHt9BOacIorQI-18" value="ArgoCD" style="swimlane;whiteSpace=wrap;html=1;" vertex="1" parent="1">
          <mxGeometry x="414" y="420" width="276" height="90" as="geometry" />
        </mxCell>
        <mxCell id="9Z9TL7PvHt9BOacIorQI-22" value="Updates TelegramBot" style="text;html=1;align=center;verticalAlign=middle;resizable=0;points=[];autosize=1;strokeColor=none;fillColor=none;" vertex="1" parent="9Z9TL7PvHt9BOacIorQI-18">
          <mxGeometry y="60" width="140" height="30" as="geometry" />
        </mxCell>
        <mxCell id="9Z9TL7PvHt9BOacIorQI-25" style="edgeStyle=orthogonalEdgeStyle;rounded=0;orthogonalLoop=1;jettySize=auto;html=1;entryX=1;entryY=0.5;entryDx=0;entryDy=0;" edge="1" parent="1" source="9Z9TL7PvHt9BOacIorQI-19" target="9Z9TL7PvHt9BOacIorQI-23">
          <mxGeometry relative="1" as="geometry" />
        </mxCell>
        <mxCell id="9Z9TL7PvHt9BOacIorQI-27" value="Updates TelegramBot" style="edgeLabel;html=1;align=center;verticalAlign=middle;resizable=0;points=[];" vertex="1" connectable="0" parent="9Z9TL7PvHt9BOacIorQI-25">
          <mxGeometry x="-0.0179" y="4" relative="1" as="geometry">
            <mxPoint as="offset" />
          </mxGeometry>
        </mxCell>
        <mxCell id="9Z9TL7PvHt9BOacIorQI-19" value="Performs autosynchronization from helm charts" style="text;html=1;align=center;verticalAlign=middle;resizable=0;points=[];autosize=1;strokeColor=none;fillColor=none;" vertex="1" parent="1">
          <mxGeometry x="417" y="450" width="270" height="30" as="geometry" />
        </mxCell>
        <mxCell id="9Z9TL7PvHt9BOacIorQI-23" value="TelegramBot" style="swimlane;whiteSpace=wrap;html=1;" vertex="1" parent="1">
          <mxGeometry x="40" y="427.5" width="210" height="75" as="geometry" />
        </mxCell>
        <mxCell id="9Z9TL7PvHt9BOacIorQI-24" value="Uses TELE_TOKEN from secrets&lt;br&gt;Executed and hosted in k3d cluster" style="text;html=1;align=left;verticalAlign=middle;resizable=0;points=[];autosize=1;strokeColor=none;fillColor=none;" vertex="1" parent="9Z9TL7PvHt9BOacIorQI-23">
          <mxGeometry y="22.5" width="210" height="40" as="geometry" />
        </mxCell>
      </root>
    </mxGraphModel>
  </diagram>
</mxfile>
